<svg version="1.1" xmlns="http://www.w3.org/2000/svg" xmlns:xlink="http://www.w3.org/1999/xlink" x="0px" y="0px"
	 viewBox="0 0 1000 1000" style="enable-background:new 0 0 1000 1000;" xml:space="preserve">
<path id="path6" d="M166.5,168l-52,100.9l52,156c-52,52-52,104-52,156l-104,254h104c-24.5-70.3,39.8-122.4,76.4-180.5l-24.5,180.5
	h104c-52-82.6,21.4-174.4,52-257c52,0,76.4,52,204.9,52l-52,204.9h104c-45.9-58.2-3.1-94.8,24.5-156l76.4,156h104
	c-82.6-45.9-82.6-119.3-104-204.9l24.5-128.5l-104-156l-76.4,24.5H243L166.5,269l52-104h-52V168z M784.5,168l-104,52l-52,104
	l104,156c24.5-52,104-52,232.5-52l24.5-76.4l-205-104V217l52-52h-52V168z"/>
</svg>
